<svg xmlns="http://www.w3.org/2000/svg" width="15" height="15" viewBox="0 0 15 15">
  <metadata><?xpacket begin="﻿" id="W5M0MpCehiHzreSzNTczkc9d"?>
<x:xmpmeta xmlns:x="adobe:ns:meta/" x:xmptk="Adobe XMP Core 5.6-c142 79.160924, 2017/07/13-01:06:39        ">
   <rdf:RDF xmlns:rdf="http://www.w3.org/1999/02/22-rdf-syntax-ns#">
      <rdf:Description rdf:about=""/>
   </rdf:RDF>
</x:xmpmeta>
                                                                                                    
                                                                                                    
                                                                                                    
                                                                                                    
                                                                                                    
                                                                                                    
                                                                                                    
                                                                                                    
                                                                                                    
                                                                                                    
                                                                                                    
                                                                                                    
                                                                                                    
                                                                                                    
                                                                                                    
                                                                                                    
                                                                                                    
                                                                                                    
                                                                                                    
                                                                                                    
                           
<?xpacket end="w"?></metadata>
<defs>
    <style>
      .cls-1 {
        fill: #dbdfeb;
        fill-rule: evenodd;
      }
    </style>
  </defs>
  <path id="Compound_Shape" data-name="Compound Shape" class="cls-1" d="M745.167,2321.68h-2.5v-0.84a0.834,0.834,0,0,0-1.667,0v0.84h-5v-0.84a0.834,0.834,0,0,0-1.667,0v0.84h-2.5a0.831,0.831,0,0,0-.833.83v1.25a0.834,0.834,0,0,0,1.667,0v-0.42h1.666v0.84a0.834,0.834,0,0,0,1.667,0v-0.84h5v0.84a0.834,0.834,0,0,0,1.667,0v-0.84h1.666v7.99l-2.011,2.01h-9.655v-5.83h10a0.831,0.831,0,0,0,.833-0.83,0.839,0.839,0,0,0-.833-0.84H731.833a0.839,0.839,0,0,0-.833.84v7.5a0.831,0.831,0,0,0,.833.83h10.834a0.856,0.856,0,0,0,.589-0.24l2.5-2.5a0.845,0.845,0,0,0,.244-0.59v-9.17A0.831,0.831,0,0,0,745.167,2321.68Z" transform="translate(-731 -2320)"/>
</svg>
