<svg xmlns="http://www.w3.org/2000/svg" xmlns:xlink="http://www.w3.org/1999/xlink" width="165" height="125" viewBox="0 0 165 125">
  <metadata><?xpacket begin="﻿" id="W5M0MpCehiHzreSzNTczkc9d"?>
<x:xmpmeta xmlns:x="adobe:ns:meta/" x:xmptk="Adobe XMP Core 5.6-c142 79.160924, 2017/07/13-01:06:39        ">
   <rdf:RDF xmlns:rdf="http://www.w3.org/1999/02/22-rdf-syntax-ns#">
      <rdf:Description rdf:about=""/>
   </rdf:RDF>
</x:xmpmeta>
                                                                                                    
                                                                                                    
                                                                                                    
                                                                                                    
                                                                                                    
                                                                                                    
                                                                                                    
                                                                                                    
                                                                                                    
                                                                                                    
                                                                                                    
                                                                                                    
                                                                                                    
                                                                                                    
                                                                                                    
                                                                                                    
                                                                                                    
                                                                                                    
                                                                                                    
                                                                                                    
                           
<?xpacket end="w"?></metadata>
<defs>
    <style>
      .cls-1 {
        opacity: 0.65;
        filter: url(#filter);
      }

      .cls-2, .cls-3 {
        fill: #a7a7a7;
      }

      .cls-3 {
        fill-rule: evenodd;
      }
    </style>
    <filter id="filter" filterUnits="userSpaceOnUse">
      <feFlood result="flood" flood-color="#bbc5de"/>
      <feComposite result="composite" operator="in" in2="SourceGraphic"/>
      <feBlend result="blend" in2="SourceGraphic"/>
    </filter>
  </defs>
  <g id="eclipse_копия_2" data-name="eclipse копия 2" class="cls-1">
    <circle id="Эллипс_1" data-name="Эллипс 1" class="cls-2" cx="163.25" cy="123.155" r="1.75"/>
    <path id="Эллипс_1_копия" data-name="Эллипс 1 копия" class="cls-3" d="M795.171,1058a1.842,1.842,0,1,1,1.748-1.84A1.794,1.794,0,0,1,795.171,1058Z" transform="translate(-655 -933)"/>
    <path id="Эллипс_1_копия_2" data-name="Эллипс 1 копия 2" class="cls-3" d="M772.1,1058a1.842,1.842,0,1,1,1.748-1.84A1.794,1.794,0,0,1,772.1,1058Z" transform="translate(-655 -933)"/>
    <path id="Эллипс_1_копия_3" data-name="Эллипс 1 копия 3" class="cls-3" d="M749.027,1058a1.842,1.842,0,1,1,1.748-1.84A1.794,1.794,0,0,1,749.027,1058Z" transform="translate(-655 -933)"/>
    <path id="Эллипс_1_копия_4" data-name="Эллипс 1 копия 4" class="cls-3" d="M725.955,1058a1.842,1.842,0,1,1,1.748-1.84A1.794,1.794,0,0,1,725.955,1058Z" transform="translate(-655 -933)"/>
    <path id="Эллипс_1_копия_5" data-name="Эллипс 1 копия 5" class="cls-3" d="M702.883,1058a1.842,1.842,0,1,1,1.748-1.84A1.794,1.794,0,0,1,702.883,1058Z" transform="translate(-655 -933)"/>
    <path id="Эллипс_1_копия_6" data-name="Эллипс 1 копия 6" class="cls-3" d="M679.811,1058a1.842,1.842,0,1,1,1.748-1.84A1.794,1.794,0,0,1,679.811,1058Z" transform="translate(-655 -933)"/>
    <path id="Эллипс_1_копия_7" data-name="Эллипс 1 копия 7" class="cls-3" d="M656.739,1058a1.842,1.842,0,1,1,1.748-1.84A1.793,1.793,0,0,1,656.739,1058Z" transform="translate(-655 -933)"/>
    <path id="Эллипс_1_копия_8" data-name="Эллипс 1 копия 8" class="cls-3" d="M818.243,1033.73a1.837,1.837,0,1,1,1.748-1.83A1.791,1.791,0,0,1,818.243,1033.73Z" transform="translate(-655 -933)"/>
    <circle id="Эллипс_1_копия_9" data-name="Эллипс 1 копия 9" class="cls-2" cx="140.172" cy="98.89" r="1.734"/>
    <circle id="Эллипс_1_копия_10" data-name="Эллипс 1 копия 10" class="cls-2" cx="117.094" cy="98.89" r="1.75"/>
    <circle id="Эллипс_1_копия_11" data-name="Эллипс 1 копия 11" class="cls-2" cx="94.031" cy="98.89" r="1.75"/>
    <circle id="Эллипс_1_копия_12" data-name="Эллипс 1 копия 12" class="cls-2" cx="70.954" cy="98.89" r="1.734"/>
    <circle id="Эллипс_1_копия_13" data-name="Эллипс 1 копия 13" class="cls-2" cx="47.875" cy="98.89" r="1.75"/>
    <circle id="Эллипс_1_копия_14" data-name="Эллипс 1 копия 14" class="cls-2" cx="24.813" cy="98.89" r="1.75"/>
    <circle id="Эллипс_1_копия_15" data-name="Эллипс 1 копия 15" class="cls-2" cx="1.75" cy="98.89" r="1.75"/>
    <circle id="Эллипс_1_копия_16" data-name="Эллипс 1 копия 16" class="cls-2" cx="163.25" cy="74.625" r="1.75"/>
    <path id="Эллипс_1_копия_17" data-name="Эллипс 1 копия 17" class="cls-3" d="M795.171,1009.47a1.842,1.842,0,1,1,1.748-1.84A1.794,1.794,0,0,1,795.171,1009.47Z" transform="translate(-655 -933)"/>
    <path id="Эллипс_1_копия_18" data-name="Эллипс 1 копия 18" class="cls-3" d="M772.1,1009.47a1.842,1.842,0,1,1,1.748-1.84A1.794,1.794,0,0,1,772.1,1009.47Z" transform="translate(-655 -933)"/>
    <path id="Эллипс_1_копия_19" data-name="Эллипс 1 копия 19" class="cls-3" d="M749.027,1009.47a1.842,1.842,0,1,1,1.748-1.84A1.794,1.794,0,0,1,749.027,1009.47Z" transform="translate(-655 -933)"/>
    <path id="Эллипс_1_копия_20" data-name="Эллипс 1 копия 20" class="cls-3" d="M725.955,1009.47a1.842,1.842,0,1,1,1.748-1.84A1.794,1.794,0,0,1,725.955,1009.47Z" transform="translate(-655 -933)"/>
    <path id="Эллипс_1_копия_21" data-name="Эллипс 1 копия 21" class="cls-3" d="M702.883,1009.47a1.842,1.842,0,1,1,1.748-1.84A1.794,1.794,0,0,1,702.883,1009.47Z" transform="translate(-655 -933)"/>
    <path id="Эллипс_1_копия_22" data-name="Эллипс 1 копия 22" class="cls-3" d="M679.811,1009.47a1.842,1.842,0,1,1,1.748-1.84A1.794,1.794,0,0,1,679.811,1009.47Z" transform="translate(-655 -933)"/>
    <path id="Эллипс_1_копия_23" data-name="Эллипс 1 копия 23" class="cls-3" d="M656.739,1009.47a1.842,1.842,0,1,1,1.748-1.84A1.793,1.793,0,0,1,656.739,1009.47Z" transform="translate(-655 -933)"/>
    <circle id="Эллипс_1_копия_24" data-name="Эллипс 1 копия 24" class="cls-2" cx="163.25" cy="50.375" r="1.75"/>
    <path id="Эллипс_1_копия_25" data-name="Эллипс 1 копия 25" class="cls-3" d="M795.171,985.2a1.84,1.84,0,1,1,1.748-1.838A1.8,1.8,0,0,1,795.171,985.2Z" transform="translate(-655 -933)"/>
    <path id="Эллипс_1_копия_26" data-name="Эллипс 1 копия 26" class="cls-3" d="M772.1,985.2a1.84,1.84,0,1,1,1.748-1.838A1.8,1.8,0,0,1,772.1,985.2Z" transform="translate(-655 -933)"/>
    <path id="Эллипс_1_копия_27" data-name="Эллипс 1 копия 27" class="cls-3" d="M749.027,985.2a1.84,1.84,0,1,1,1.748-1.838A1.8,1.8,0,0,1,749.027,985.2Z" transform="translate(-655 -933)"/>
    <path id="Эллипс_1_копия_28" data-name="Эллипс 1 копия 28" class="cls-3" d="M725.955,985.2a1.84,1.84,0,1,1,1.748-1.838A1.8,1.8,0,0,1,725.955,985.2Z" transform="translate(-655 -933)"/>
    <path id="Эллипс_1_копия_29" data-name="Эллипс 1 копия 29" class="cls-3" d="M702.883,985.2a1.84,1.84,0,1,1,1.748-1.838A1.8,1.8,0,0,1,702.883,985.2Z" transform="translate(-655 -933)"/>
    <path id="Эллипс_1_копия_30" data-name="Эллипс 1 копия 30" class="cls-3" d="M679.811,985.2a1.84,1.84,0,1,1,1.748-1.838A1.8,1.8,0,0,1,679.811,985.2Z" transform="translate(-655 -933)"/>
    <path id="Эллипс_1_копия_31" data-name="Эллипс 1 копия 31" class="cls-3" d="M656.739,985.2a1.84,1.84,0,1,1,1.748-1.838A1.794,1.794,0,0,1,656.739,985.2Z" transform="translate(-655 -933)"/>
    <path id="Эллипс_1_копия_32" data-name="Эллипс 1 копия 32" class="cls-3" d="M818.243,960.94a1.841,1.841,0,1,1,1.748-1.839A1.8,1.8,0,0,1,818.243,960.94Z" transform="translate(-655 -933)"/>
    <circle id="Эллипс_1_копия_33" data-name="Эллипс 1 копия 33" class="cls-2" cx="140.172" cy="26.094" r="1.734"/>
    <circle id="Эллипс_1_копия_34" data-name="Эллипс 1 копия 34" class="cls-2" cx="117.094" cy="26.094" r="1.75"/>
    <circle id="Эллипс_1_копия_35" data-name="Эллипс 1 копия 35" class="cls-2" cx="94.031" cy="26.094" r="1.75"/>
    <circle id="Эллипс_1_копия_36" data-name="Эллипс 1 копия 36" class="cls-2" cx="70.954" cy="26.094" r="1.734"/>
    <circle id="Эллипс_1_копия_37" data-name="Эллипс 1 копия 37" class="cls-2" cx="47.875" cy="26.094" r="1.75"/>
    <circle id="Эллипс_1_копия_38" data-name="Эллипс 1 копия 38" class="cls-2" cx="24.813" cy="26.094" r="1.75"/>
    <circle id="Эллипс_1_копия_39" data-name="Эллипс 1 копия 39" class="cls-2" cx="1.75" cy="26.094" r="1.75"/>
    <path id="Эллипс_1_копия_40" data-name="Эллипс 1 копия 40" class="cls-3" d="M818.243,936.675a1.841,1.841,0,1,1,1.748-1.838A1.8,1.8,0,0,1,818.243,936.675Z" transform="translate(-655 -933)"/>
    <circle id="Эллипс_1_копия_41" data-name="Эллипс 1 копия 41" class="cls-2" cx="140.172" cy="1.844" r="1.734"/>
    <circle id="Эллипс_1_копия_42" data-name="Эллипс 1 копия 42" class="cls-2" cx="117.094" cy="1.844" r="1.75"/>
    <circle id="Эллипс_1_копия_43" data-name="Эллипс 1 копия 43" class="cls-2" cx="94.031" cy="1.844" r="1.75"/>
    <circle id="Эллипс_1_копия_44" data-name="Эллипс 1 копия 44" class="cls-2" cx="70.954" cy="1.844" r="1.734"/>
    <circle id="Эллипс_1_копия_45" data-name="Эллипс 1 копия 45" class="cls-2" cx="47.875" cy="1.844" r="1.75"/>
    <circle id="Эллипс_1_копия_46" data-name="Эллипс 1 копия 46" class="cls-2" cx="24.813" cy="1.844" r="1.75"/>
    <circle id="Эллипс_1_копия_47" data-name="Эллипс 1 копия 47" class="cls-2" cx="1.75" cy="1.844" r="1.75"/>
  </g>
</svg>
