<svg xmlns="http://www.w3.org/2000/svg" width="49" height="48" viewBox="0 0 49 48">
  <metadata><?xpacket begin="﻿" id="W5M0MpCehiHzreSzNTczkc9d"?>
<x:xmpmeta xmlns:x="adobe:ns:meta/" x:xmptk="Adobe XMP Core 5.6-c142 79.160924, 2017/07/13-01:06:39        ">
   <rdf:RDF xmlns:rdf="http://www.w3.org/1999/02/22-rdf-syntax-ns#">
      <rdf:Description rdf:about=""/>
   </rdf:RDF>
</x:xmpmeta>
                                                                                                    
                                                                                                    
                                                                                                    
                                                                                                    
                                                                                                    
                                                                                                    
                                                                                                    
                                                                                                    
                                                                                                    
                                                                                                    
                                                                                                    
                                                                                                    
                                                                                                    
                                                                                                    
                                                                                                    
                                                                                                    
                                                                                                    
                                                                                                    
                                                                                                    
                                                                                                    
                           
<?xpacket end="w"?></metadata>
<defs>
    <style>
      .cls-1 {
        fill: #fff;
        fill-rule: evenodd;
      }
    </style>
  </defs>
  <path id="layer" class="cls-1" d="M1121.27,32.8a15.122,15.122,0,0,1,4.06-10.33c10.79-13.248-.84-28.751-4.14-31.382A24.387,24.387,0,0,1,1112-28a24.387,24.387,0,0,1,9.19-19.087c3.3-2.631,14.93-18.135,4.14-31.383a15.123,15.123,0,0,1-4.06-10.33A15.215,15.215,0,0,1,1136.5-104a15.215,15.215,0,0,1,15.23,15.2,15.123,15.123,0,0,1-4.06,10.33c-10.79,13.248.84,28.752,4.14,31.383A24.387,24.387,0,0,1,1161-28a24.387,24.387,0,0,1-9.19,19.086c-3.3,2.631-14.93,18.134-4.14,31.382A15.215,15.215,0,1,1,1121.27,32.8Z" transform="translate(-1112)"/>
</svg>
