<svg xmlns="http://www.w3.org/2000/svg" width="16" height="16" viewBox="0 0 16 16">
  <metadata><?xpacket begin="﻿" id="W5M0MpCehiHzreSzNTczkc9d"?>
<x:xmpmeta xmlns:x="adobe:ns:meta/" x:xmptk="Adobe XMP Core 5.6-c142 79.160924, 2017/07/13-01:06:39        ">
   <rdf:RDF xmlns:rdf="http://www.w3.org/1999/02/22-rdf-syntax-ns#">
      <rdf:Description rdf:about=""/>
   </rdf:RDF>
</x:xmpmeta>
                                                                                                    
                                                                                                    
                                                                                                    
                                                                                                    
                                                                                                    
                                                                                                    
                                                                                                    
                                                                                                    
                                                                                                    
                                                                                                    
                                                                                                    
                                                                                                    
                                                                                                    
                                                                                                    
                                                                                                    
                                                                                                    
                                                                                                    
                                                                                                    
                                                                                                    
                                                                                                    
                           
<?xpacket end="w"?></metadata>
<defs>
    <style>
      .cls-1 {
        fill: #31343c;
        fill-rule: evenodd;
      }
    </style>
  </defs>
  <path id="Compound_Shape" data-name="Compound Shape" class="cls-1" d="M1057,49.335a1.778,1.778,0,1,0-1.78-1.778A1.781,1.781,0,0,0,1057,49.335Zm2.24,0.983,0.9,0.9,3.34,1.022a0.886,0.886,0,0,1,.62.72l0.89,6.025a0.89,0.89,0,0,1-.88,1.019h-14.22a0.89,0.89,0,0,1-.89-0.888c0-.043.01-0.086,0.01-0.129l0.89-6.024a0.876,0.876,0,0,1,.54-0.694l2.67-1.087a0.889,0.889,0,0,1,.67,1.646l-2.2.9-0.66,4.5h12.16l-0.66-4.45-3.02-.923a0.9,0.9,0,0,1-.36-0.221l-1.55-1.55a3.559,3.559,0,0,1-4.03-3.878,3.513,3.513,0,0,1,2.24-2.957,3.558,3.558,0,0,1,3.54,6.074h0Z" transform="translate(-1049 -44)"/>
</svg>
